<svg version="1.1" xmlns="http://www.w3.org/2000/svg" viewBox="0 0 816.8363702159747 459" width="1633.6727404319495" height="918">
  <!-- svg-source:excalidraw -->
  
  <defs>
    <style>
      @font-face {
        font-family: "Virgil";
        src: url("https://excalidraw.com/Virgil.woff2");
      }
      @font-face {
        font-family: "Cascadia";
        src: url("https://excalidraw.com/Cascadia.woff2");
      }
    </style>
  </defs>
  <rect x="0" y="0" width="816.8363702159747" height="459" fill="#ffffff"></rect><g stroke-linecap="round" transform="translate(12.336370215974739 42.5) rotate(0 68.5 186)"><path d="M1.21 0.69 C32.67 0.23, 62.56 -0.46, 137.96 0.14 M-0.27 0.67 C47.42 0.83, 97.02 -0.02, 136.92 -0.22 M135.96 0.59 C136.26 131.47, 137.05 265.33, 136.65 371.04 M136.49 -0.57 C135.87 147.16, 136.09 293.9, 136.68 372.04 M138.53 371.82 C96.41 372.93, 57.56 373.65, -1.4 373.13 M137.64 371.52 C106.05 372.56, 74.13 372.69, 0.5 372.18 M-1.05 371.62 C-1.2 275.93, -0.12 177.61, -0.35 -0.7 M0.01 372.15 C-1.75 285.87, -2.31 200.09, 0.19 0.08" stroke="#000000" stroke-width="1" fill="none"></path></g><g stroke-linecap="round"><g transform="translate(12.336370215974739 92.99999999999997) rotate(0 68.30149354922585 -0.14605189274764996)"><path d="M-0.61 -0.98 C22.01 -1.36, 112.09 -1.49, 135.02 -1.36 M1.27 1.12 C24.32 0.83, 114.65 0.53, 137.21 -0.01" stroke="#000000" stroke-width="1" fill="none"></path></g></g><g transform="translate(47.83637021597474 49.5) rotate(0 28.5 12.5)"><text x="28.5" y="18" font-family="Virgil, Segoe UI Emoji" font-size="20px" fill="#000000" text-anchor="middle" style="white-space: pre;" direction="ltr">kernel</text></g><g stroke-linecap="round"><g transform="translate(13.336370215974739 144.49999999999994) rotate(0 66.74815276491455 -0.24651704129182406)"><path d="M0.22 0.63 C11.44 0.63, 45.18 -0.86, 67.58 -1.07 C89.98 -1.28, 123.36 -0.74, 134.62 -0.63 M-1.12 -0.09 C10.44 0.21, 47.35 0.39, 69.81 0.42 C92.27 0.46, 122.71 0.13, 133.65 0.1" stroke="#000000" stroke-width="1" fill="none"></path></g></g><g transform="translate(50.83637021597474 100) rotate(0 28.5 12.5)"><text x="28.5" y="18" font-family="Virgil, Segoe UI Emoji" font-size="20px" fill="#000000" text-anchor="middle" style="white-space: pre;" direction="ltr">stack</text></g><g stroke-linecap="round"><g transform="translate(11.336370215974739 360.5) rotate(0 69.56698981646448 -0.6249049808830023)"><path d="M0.08 0.41 C23.15 -0.07, 115.06 -1.3, 138.19 -1.66 M-1.34 -0.43 C22.13 -0.25, 117.25 -0.41, 140.47 -0.46" stroke="#000000" stroke-width="1" fill="none"></path></g></g><g transform="translate(49.83637021597474 377.5) rotate(0 23.5 12.5)"><text x="23.5" y="18" font-family="Virgil, Segoe UI Emoji" font-size="20px" fill="#000000" text-anchor="middle" style="white-space: pre;" direction="ltr">text</text></g><g stroke-linecap="round"><g transform="translate(12.336370215974739 302) rotate(0 68.96156097310596 0.4976156929295996)"><path d="M1.12 -0.64 C24.09 -0.3, 114.95 1.05, 137.67 1.14 M0.25 1.64 C23.14 1.7, 114.3 -0.53, 137.08 -0.64" stroke="#000000" stroke-width="1" fill="none"></path></g></g><g transform="translate(52.83637021597474 318) rotate(0 25.5 12.5)"><text x="25.5" y="18" font-family="Virgil, Segoe UI Emoji" font-size="20px" fill="#000000" text-anchor="middle" style="white-space: pre;" direction="ltr">data</text></g><g stroke-linecap="round"><g transform="translate(13.336370215974739 248) rotate(0 66.94942932985722 0.6495447483939927)"><path d="M-1.12 0.81 C21.43 0.62, 112.49 -0.14, 135.02 -0.1 M0.49 0.19 C22.95 0.71, 112.26 1.53, 134.34 1.38" stroke="#000000" stroke-width="1" fill="none"></path></g></g><g transform="translate(54.83637021597474 262.5) rotate(0 23 12.5)"><text x="23" y="18" font-family="Virgil, Segoe UI Emoji" font-size="20px" fill="#000000" text-anchor="middle" style="white-space: pre;" direction="ltr">heap</text></g><g stroke-linecap="round"><g transform="translate(28.83637021597474 120) rotate(0 0.05025158785284134 24.14545212971045)"><path d="M-1.07 -1.14 C-0.97 6.71, 0.81 39.82, 1.17 47.93 M0.57 0.87 C0.48 8.85, 0.34 41.48, 0.31 49.43" stroke="#000000" stroke-width="4" fill="none"></path></g><g transform="translate(28.83637021597474 120) rotate(0 0.05025158785284134 24.14545212971045)"><path d="M-9.72 27.13 C-4.95 34.97, -2.78 42.03, 0.25 48.45 M-8.59 26.19 C-5.45 33.99, -1.33 42.11, 0 48.72" stroke="#000000" stroke-width="4" fill="none"></path></g><g transform="translate(28.83637021597474 120) rotate(0 0.05025158785284134 24.14545212971045)"><path d="M6.7 27.2 C5.77 34.86, 2.25 41.9, 0.25 48.45 M7.83 26.25 C5.37 34.17, 3.9 42.26, 0 48.72" stroke="#000000" stroke-width="4" fill="none"></path></g></g><g stroke-linecap="round"><g transform="translate(32.33637021597474 269.5) rotate(0 -0.2552207702065772 -24.6549441959709)"><path d="M-0.26 1 C-0.47 -7.2, -1.93 -41.97, -2.34 -50.31 M1.8 0.48 C2.06 -7.44, 0.3 -40.38, -0.07 -48.94" stroke="#000000" stroke-width="4" fill="none"></path></g><g transform="translate(32.33637021597474 269.5) rotate(0 -0.2552207702065772 -24.6549441959709)"><path d="M11.26 -27.26 C7.25 -32.73, 7.32 -34.96, 1.47 -48.22 M9.35 -26.81 C6.53 -33.94, 4.42 -40.32, 0.59 -49.49" stroke="#000000" stroke-width="4" fill="none"></path></g><g transform="translate(32.33637021597474 269.5) rotate(0 -0.2552207702065772 -24.6549441959709)"><path d="M-5.83 -26.45 C-6.22 -32.06, -2.54 -34.46, 1.47 -48.22 M-7.74 -26 C-5.32 -33.32, -2.19 -39.95, 0.59 -49.49" stroke="#000000" stroke-width="4" fill="none"></path></g></g><g transform="translate(27.83637021597474 424) rotate(0 56.5 12.5)"><text x="56.5" y="18" font-family="Virgil, Segoe UI Emoji" font-size="20px" fill="#000000" text-anchor="middle" style="white-space: pre;" direction="ltr">Ox00000...</text></g><g transform="translate(30.33637021597474 10) rotate(0 46.5 12.5)"><text x="46.5" y="18" font-family="Virgil, Segoe UI Emoji" font-size="20px" fill="#000000" text-anchor="middle" style="white-space: pre;" direction="ltr">Oxfffff...</text></g><g stroke-linecap="round" transform="translate(224.83637021597474 199) rotate(0 272 69)"><path d="M-0.67 -0.64 C181.07 1.62, 361.63 1.56, 543.6 0.04 M-0.37 0.01 C149.96 1.83, 299.53 1.42, 543.75 0.34 M545.91 -1.98 C543.17 46.04, 545.54 93.47, 545.48 139.55 M543.73 0.04 C544.11 38.11, 543.17 74.75, 543.44 138.71 M543.81 137.28 C380.15 137.63, 215.1 137, 0.08 137.41 M543.96 138.29 C432.19 139.84, 320.22 140.16, -0.17 137.61 M1.44 136.49 C-0.4 89.14, 1.23 42.78, 0.1 -0.04 M0.21 138.91 C-0.24 98.66, 0.81 60.1, 0.33 0.89" stroke="#000000" stroke-width="1" fill="none"></path></g><g transform="translate(449.33637021597474 162.5) rotate(0 28.5 12.5)"><text x="28.5" y="18" font-family="Virgil, Segoe UI Emoji" font-size="20px" fill="#000000" text-anchor="middle" style="white-space: pre;" direction="ltr">stack</text></g><g transform="translate(733.8363702159747 162.5) rotate(0 36.5 12.5)"><text x="36.5" y="18" font-family="Virgil, Segoe UI Emoji" font-size="20px" fill="#000000" text-anchor="middle" style="white-space: pre;" direction="ltr">Oxfff...</text></g><g transform="translate(174.83637021597474 160.5) rotate(0 42.5 12.5)"><text x="42.5" y="18" font-family="Virgil, Segoe UI Emoji" font-size="20px" fill="#000000" text-anchor="middle" style="white-space: pre;" direction="ltr">Ox000...</text></g><g stroke-linecap="round"><g transform="translate(704.8363702159747 199.5) rotate(0 0.45213415039700067 67.38030987717212)"><path d="M0.46 -1.1 C0.75 21.71, 1.37 113.26, 1.66 135.87 M-0.75 0.93 C-0.6 23.51, 0.36 111.75, 0.79 134.2" stroke="#000000" stroke-width="1" fill="none"></path></g></g><g transform="translate(717.8363702159747 252.5) rotate(0 21 12.5)"><text x="21" y="18" font-family="Virgil, Segoe UI Emoji" font-size="20px" fill="#000000" text-anchor="middle" style="white-space: pre;" direction="ltr">func</text></g><g stroke-linecap="round"><g transform="translate(631.3363702159747 198) rotate(0 0.010565443364953353 68.59322198184205)"><path d="M0.72 0.69 C0.66 23.3, 0.1 113.2, -0.01 136.11 M-0.35 0.01 C-0.57 22.7, -0.7 114.44, -0.7 137.18" stroke="#000000" stroke-width="1" fill="none"></path></g></g><g transform="translate(637.3363702159747 254.5) rotate(0 30 12.5)"><text x="30" y="18" font-family="Virgil, Segoe UI Emoji" font-size="20px" fill="#000000" text-anchor="middle" style="white-space: pre;" direction="ltr">param</text></g><g stroke-linecap="round"><g transform="translate(583.3363702159747 200) rotate(0 -1.2997548852115983 67.13193595148624)"><path d="M0.27 -0.68 C-0.09 21.91, -2.33 112.31, -2.87 134.95 M-1.05 1.57 C-0.97 23.89, -0.68 111.35, -0.61 133.32" stroke="#000000" stroke-width="1" fill="none"></path></g></g><g transform="translate(587.8363702159747 248.5) rotate(0 16.5 12.5)"><text x="16.5" y="18" font-family="Virgil, Segoe UI Emoji" font-size="20px" fill="#000000" text-anchor="middle" style="white-space: pre;" direction="ltr">ret</text></g><g stroke-linecap="round"><g transform="translate(506.33637021597474 202.5) rotate(0 1.5741446119096736 67.80468600826336)"><path d="M-0.52 0.25 C-0.4 22.76, 0.89 113.53, 1.31 136.28 M1.41 -0.67 C1.87 21.97, 3.69 111.73, 3.67 134.3" stroke="#000000" stroke-width="1" fill="none"></path></g></g><g transform="translate(513.3363702159747 229.5) rotate(0 34 25)"><text x="34" y="18" font-family="Virgil, Segoe UI Emoji" font-size="20px" fill="#000000" text-anchor="middle" style="white-space: pre;" direction="ltr">base</text><text x="34" y="43" font-family="Virgil, Segoe UI Emoji" font-size="20px" fill="#000000" text-anchor="middle" style="white-space: pre;" direction="ltr">pointer</text></g><g stroke-linecap="round"><g transform="translate(282.33637021597474 200) rotate(0 1.0393845227174552 68.07068515268156)"><path d="M0.9 -0.6 C0.95 21.93, -0.18 112.56, -0.01 135.48 M-0.09 1.7 C0.35 24.37, 1.89 114.52, 2.17 136.74" stroke="#000000" stroke-width="1" fill="none"></path></g></g><g transform="translate(359.33637021597474 254.5) rotate(0 31 25)"><text x="31" y="18" font-family="Virgil, Segoe UI Emoji" font-size="20px" fill="#000000" text-anchor="middle" style="white-space: pre;" direction="ltr">buffer</text><text x="31" y="43" font-family="Virgil, Segoe UI Emoji" font-size="20px" fill="#000000" text-anchor="middle" style="white-space: pre;" direction="ltr">(500)</text></g></svg>